<svg id="Layer_1" data-name="Layer 1" xmlns="http://www.w3.org/2000/svg" viewBox="0 0 188.4 75.9"><defs><style>.cls-1{fill:#fd655a;}</style></defs><path class="cls-1" d="M15.24,73.65q-1-17.7-1-30.85t.6-27.45l-12.2,1.7L.44,5.45Q10.25,3.74,19.84,3l18.7-1,1.9,11.1Q35,13.35,28,14q-.6,14.4-.6,26.4t.4,34.4Z" transform="translate(-0.44 -0.15)"/><path class="cls-1" d="M44.24,30.7a13.22,13.22,0,0,1,11-5.45A10.78,10.78,0,0,1,65.29,30.9Q68.54,36.54,68.54,47t-1.2,28.7l-8.4-.7-.79-3.2a19.1,19.1,0,0,1-9.61,2.7,10.93,10.93,0,0,1-8.1-3.25q-3.19-3.26-3.2-9.35t6-10.5a24.14,24.14,0,0,1,14-4.6v-2.7c0-5.27-1.26-7.9-3.8-7.9q-1.89,0-3.45,2.65a19.88,19.88,0,0,0-2.25,6.05l-9.2-.9A30.88,30.88,0,0,1,44.24,30.7Zm3.2,31.75q0,3.19,3.8,3.2a14.36,14.36,0,0,0,5.5-1.2l.2-8.4c-3.13.26-5.5,1.05-7.1,2.35S47.44,61.05,47.44,62.45Z" transform="translate(-0.44 -0.15)"/><path class="cls-1" d="M103.44,26.35q4.82,0,7.15,5.3a30.69,30.69,0,0,1,2.35,12.55,67.36,67.36,0,0,1-1.54,14.35,34.41,34.41,0,0,1-4.91,12q-3.34,5-7.65,5-6.28,0-10.4-5.6c0,.93.07,2.26.21,4l-8.81-.9q-.6-12-.6-32.25T80.34.15l11.4,1q-1.2,19.7-1.2,35.8Q97.25,26.35,103.44,26.35Zm-12.9,27.7.11,7.8a10.47,10.47,0,0,0,2.09,2.35,4.63,4.63,0,0,0,2.7.65q2.5,0,4.4-5.55a32.51,32.51,0,0,0,1.9-10.55,32.79,32.79,0,0,0-.55-7.2c-.36-1.47-1.15-2.2-2.35-2.2Q95,39.35,90.54,54.05Z" transform="translate(-0.44 -0.15)"/><path class="cls-1" d="M118.44,54.55a46,46,0,0,1,3.8-18.2A19,19,0,0,1,127.89,29,12.93,12.93,0,0,1,136,26.15a14.18,14.18,0,0,1,7.75,2.05,13.34,13.34,0,0,1,5,5.45,32.56,32.56,0,0,1,3.3,14.6,40.9,40.9,0,0,1-4.45,19.35q-4.44,8.45-12.45,8.45Q118.45,76.05,118.44,54.55Zm11.7.9q0,11.29,5,11.3,2.21,0,3.7-6.35a52.94,52.94,0,0,0,1.5-12.15q0-12.81-4.2-12.8-2.7,0-4.35,6.85A56.09,56.09,0,0,0,130.14,55.45Z" transform="translate(-0.44 -0.15)"/><path class="cls-1" d="M155.24,54.55a46,46,0,0,1,3.8-18.2A19,19,0,0,1,164.69,29a12.93,12.93,0,0,1,8.15-2.85,14.18,14.18,0,0,1,7.75,2.05,13.34,13.34,0,0,1,4.95,5.45,32.56,32.56,0,0,1,3.3,14.6,40.9,40.9,0,0,1-4.45,19.35Q180,76,171.94,76.05,155.25,76.05,155.24,54.55Zm11.7.9q0,11.29,5,11.3,2.2,0,3.7-6.35a52.94,52.94,0,0,0,1.5-12.15q0-12.81-4.2-12.8-2.7,0-4.35,6.85A56.09,56.09,0,0,0,166.94,55.45Z" transform="translate(-0.44 -0.15)"/></svg>